<svg width="24" height="25" viewBox="0 0 24 25" fill="none" xmlns="http://www.w3.org/2000/svg">
<path fill-rule="evenodd" clip-rule="evenodd" d="M17.0916 7.19625C16.1303 6.19553 14.9168 5.49864 13.5913 5.18615C12.2658 4.87365 10.8825 4.95831 9.60123 5.43033C8.31998 5.90236 7.19314 6.74248 6.35098 7.85356C5.50883 8.96465 4.98575 10.3013 4.84222 11.7091C4.6987 13.1168 4.94058 14.5381 5.53991 15.8086C6.13925 17.0792 7.07155 18.1471 8.22904 18.8889C9.38653 19.6308 10.7219 20.0162 12.0809 20.0007C13.4398 19.9852 14.7668 19.5693 15.9084 18.8013C16.0406 18.7069 16.1895 18.641 16.3465 18.6076C16.5035 18.5741 16.6653 18.5737 16.8224 18.6065C16.9795 18.6392 17.1288 18.7044 17.2613 18.7982C17.3939 18.892 17.507 19.0125 17.5941 19.1526C17.6813 19.2927 17.7406 19.4495 17.7686 19.6138C17.7965 19.7782 17.7927 19.9467 17.7571 20.1095C17.7216 20.2722 17.6551 20.4259 17.5616 20.5615C17.4681 20.697 17.3495 20.8117 17.2128 20.8987C15.4209 22.1058 13.2939 22.6564 11.168 22.4638C9.04209 22.2711 7.03839 21.3462 5.47345 19.8349C3.90852 18.3237 2.87157 16.3125 2.52641 14.1189C2.18126 11.9253 2.54758 9.67441 3.56751 7.72188C4.58744 5.76935 6.20283 4.22647 8.15848 3.33697C10.1141 2.44747 12.2985 2.26207 14.3666 2.81005C16.4347 3.35804 18.2686 4.60817 19.5785 6.36296C20.8884 8.11774 21.5997 10.2771 21.6 12.5C21.6002 13.1965 21.4142 13.8794 21.0628 14.4719C20.7114 15.0645 20.2085 15.5435 19.6105 15.8551C19.0125 16.1667 18.343 16.2986 17.677 16.2361C17.011 16.1736 16.3749 15.9192 15.84 15.5012C15.1562 16.451 14.1702 17.1163 13.0586 17.3781C11.9469 17.64 10.7821 17.4812 9.77256 16.9303C8.763 16.3794 7.97456 15.4722 7.54832 14.3712C7.12209 13.2701 7.08587 12.047 7.44614 10.9207C7.80641 9.79438 8.53967 8.83834 9.51472 8.22365C10.4898 7.60895 11.643 7.37571 12.768 7.56566C13.893 7.75561 14.9165 8.35635 15.6552 9.2604C16.3939 10.1644 16.7997 11.3128 16.8 12.5C16.8 12.8315 16.9264 13.1495 17.1515 13.3839C17.3765 13.6183 17.6817 13.75 18 13.75C18.3183 13.75 18.6235 13.6183 18.8485 13.3839C19.0736 13.1495 19.2 12.8315 19.2 12.5C19.2 10.5787 18.4968 8.6625 17.0916 7.19625ZM14.4 12.5C14.4 11.837 14.1472 11.2011 13.6971 10.7322C13.247 10.2634 12.6365 10 12 10C11.3635 10 10.753 10.2634 10.303 10.7322C9.85286 11.2011 9.60001 11.837 9.60001 12.5C9.60001 13.163 9.85286 13.7989 10.303 14.2678C10.753 14.7366 11.3635 15 12 15C12.6365 15 13.247 14.7366 13.6971 14.2678C14.1472 13.7989 14.4 13.163 14.4 12.5Z" fill="#CACBCE"/>
</svg>
